<mxfile host="65bd71144e">
    <diagram id="IcuWp7b_-2BuDQ8KUnE1" name="Page-1">
        <mxGraphModel dx="716" dy="789" grid="1" gridSize="10" guides="1" tooltips="1" connect="1" arrows="1" fold="1" page="1" pageScale="1" pageWidth="850" pageHeight="1100" math="0" shadow="0">
            <root>
                <mxCell id="0"/>
                <mxCell id="1" parent="0"/>
                <mxCell id="2" value="" style="rounded=1;whiteSpace=wrap;html=1;" vertex="1" parent="1">
                    <mxGeometry x="20" y="10" width="700" height="60" as="geometry"/>
                </mxCell>
                <mxCell id="3" value="Oreo" style="text;html=1;strokeColor=none;fillColor=none;align=center;verticalAlign=middle;whiteSpace=wrap;rounded=0;shadow=1;fontStyle=1;fontSize=20;" vertex="1" parent="1">
                    <mxGeometry x="30" y="27.5" width="60" height="25" as="geometry"/>
                </mxCell>
                <mxCell id="8" value="&lt;h1&gt;Heading&lt;/h1&gt;&lt;p&gt;Lorem ipsum dolor sit amet, consectetur adipisicing elit, sed do eiusmod tempor incididunt ut labore et dolore magna aliqua.&lt;/p&gt;" style="text;html=1;strokeColor=none;fillColor=none;spacing=5;spacingTop=-20;whiteSpace=wrap;overflow=hidden;rounded=0;shadow=1;fontSize=20;align=center;fontStyle=1" vertex="1" parent="1">
                    <mxGeometry x="40" y="110" width="660" height="400" as="geometry"/>
                </mxCell>
            </root>
        </mxGraphModel>
    </diagram>
</mxfile>